<svg width="403" height="156" viewBox="0 0 403 156" fill="none" xmlns="http://www.w3.org/2000/svg">
<path d="M201.014 156C188.408 155.951 177.56 152.837 168.471 146.659C159.431 140.481 152.468 131.532 147.582 119.813C142.744 108.094 140.35 93.9972 140.399 77.5219C140.399 61.0957 142.817 47.0967 147.655 35.5248C152.541 23.9529 159.504 15.1513 168.544 9.12023C177.633 3.04008 188.456 0 201.014 0C213.572 0 224.371 3.04008 233.411 9.12023C242.5 15.2004 249.488 24.0264 254.374 35.5983C259.26 47.1212 261.679 61.0957 261.63 77.5219C261.63 94.0462 259.187 108.168 254.301 119.887C249.463 131.606 242.524 140.554 233.485 146.733C224.445 152.911 213.621 156 201.014 156ZM201.014 129.595C209.614 129.595 216.48 125.256 221.611 116.577C226.741 107.898 229.282 94.8798 229.233 77.5219C229.233 66.0971 228.061 56.5846 225.715 48.9844C223.419 41.3843 220.145 35.6719 215.894 31.8472C211.691 28.0226 206.732 26.1103 201.014 26.1103C192.463 26.1103 185.622 30.4008 180.492 38.9816C175.361 47.5625 172.771 60.4092 172.722 77.5219C172.722 89.0938 173.87 98.7534 176.167 106.501C178.513 114.199 181.811 119.985 186.062 123.859C190.313 127.683 195.297 129.595 201.014 129.595Z" fill="#A6AAB4"/>
<path d="M102.395 100.69V2.05941H84.2172H72.6364H62.6681L0 101.132V126.212H72.05V152.69H102.395V126.212H121.012V100.69H102.395ZM72.6364 100.69H31.9571V99.5135L71.4637 36.7751H72.6364V100.69Z" fill="#A6AAB4"/>
<path d="M384.383 100.69V2.05941H366.205H354.625H344.656L281.988 101.132V126.212H354.038V152.69H384.383V126.212H403V100.69H384.383ZM354.625 100.69H313.945V99.5135L353.452 36.7751H354.625V100.69Z" fill="#A6AAB4"/>
</svg>
