<svg width="28" height="28" viewBox="0 0 28 28" fill="none" xmlns="http://www.w3.org/2000/svg">
<path d="M25.79 8.38C25.6 8.14001 25.31 8 25 8H8.78L7.97 4.76C7.9172 4.54277 7.79279 4.34965 7.61681 4.21177C7.44084 4.0739 7.22356 3.9993 7 4H3C2.45 4 2 4.45 2 5.00001C2 5.55 2.45 6.00001 3 6.00001H6.22L7.03 9.24L9.15 17.73C9.31223 18.3788 9.68682 18.9547 10.2141 19.3661C10.7415 19.7774 11.3912 20.0006 12.06 20H20.94C22.32 20 23.52 19.06 23.85 17.73L25.97 9.24C26.05 8.94 25.98 8.63 25.79 8.38ZM13 24C13 25.1 12.1 26 11 26C9.9 26 9 25.1 9 24C9 22.9 9.9 22 11 22C12.1 22 13 22.9 13 24ZM24 24C24 25.1 23.1 26 22 26C20.9 26 20 25.1 20 24C20 22.9 20.9 22 22 22C23.1 22 24 22.9 24 24Z" fill="#294F78"/>
</svg>
