<svg width="121" height="103" viewBox="0 0 121 103" fill="none" xmlns="http://www.w3.org/2000/svg">
<path d="M120.818 101.946L60.5 0.20256L0.181641 101.946H120.818Z" fill="white" stroke="white" stroke-width="0.206452" stroke-miterlimit="22.9256"/>
<mask id="mask0_141_11490" style="mask-type:luminance" maskUnits="userSpaceOnUse" x="45" y="34" width="31" height="27">
<path d="M75.3793 34.6494H60.2284H45.0781L52.6528 47.8225L60.2284 60.9995L67.8046 47.8225L75.3793 34.6494Z" fill="white"/>
</mask>
<g mask="url(#mask0_141_11490)">
<path fill-rule="evenodd" clip-rule="evenodd" d="M75.3793 34.6494H60.2284H45.0781L52.6528 47.8225L60.2284 60.9995L67.8046 47.8225L75.3793 34.6494Z" fill="url(#paint0_linear_141_11490)"/>
</g>
<mask id="mask1_141_11490" style="mask-type:luminance" maskUnits="userSpaceOnUse" x="45" y="34" width="31" height="27">
<mask id="mask2_141_11490" style="mask-type:luminance" maskUnits="userSpaceOnUse" x="45" y="34" width="31" height="27">
<path d="M45.0781 60.9995H75.3793V34.6494H45.0781V60.9995Z" fill="white"/>
</mask>
<g mask="url(#mask2_141_11490)">
<path fill-rule="evenodd" clip-rule="evenodd" d="M45.0781 60.9995H75.3793V34.6494H45.0781V60.9995Z" fill="url(#paint1_linear_141_11490)"/>
</g>
</mask>
<g mask="url(#mask1_141_11490)">
<path fill-rule="evenodd" clip-rule="evenodd" d="M75.3793 34.6494H60.2284H45.0781L52.6528 47.8225L60.2284 60.9995L67.8046 47.8225L75.3793 34.6494Z" fill="white"/>
</g>
<mask id="mask3_141_11490" style="mask-type:luminance" maskUnits="userSpaceOnUse" x="45" y="7" width="30" height="26">
<path d="M74.5836 32.8792L60.2271 7.91267L45.8711 32.8792H60.2271H74.5836Z" fill="white"/>
</mask>
<g mask="url(#mask3_141_11490)">
<path fill-rule="evenodd" clip-rule="evenodd" d="M74.5836 32.8792L60.2271 7.91267L45.8711 32.8792H60.2271H74.5836Z" fill="url(#paint2_linear_141_11490)"/>
</g>
<mask id="mask4_141_11490" style="mask-type:luminance" maskUnits="userSpaceOnUse" x="45" y="7" width="30" height="26">
<mask id="mask5_141_11490" style="mask-type:luminance" maskUnits="userSpaceOnUse" x="45" y="7" width="30" height="26">
<path d="M45.8711 32.879H74.5836V7.91248H45.8711V32.879Z" fill="white"/>
</mask>
<g mask="url(#mask5_141_11490)">
<path fill-rule="evenodd" clip-rule="evenodd" d="M45.8711 32.879H74.5836V7.91248H45.8711V32.879Z" fill="url(#paint3_linear_141_11490)"/>
</g>
</mask>
<g mask="url(#mask4_141_11490)">
<path fill-rule="evenodd" clip-rule="evenodd" d="M74.5836 32.8792L60.2271 7.91267L45.8711 32.8792H60.2271H74.5836Z" fill="#5374AA"/>
</g>
<mask id="mask6_141_11490" style="mask-type:luminance" maskUnits="userSpaceOnUse" x="62" y="36" width="29" height="26">
<path d="M62.2422 61.0347H90.7753L76.508 36.2281L69.3314 48.7091L62.2422 61.0347Z" fill="white"/>
</mask>
<g mask="url(#mask6_141_11490)">
<path fill-rule="evenodd" clip-rule="evenodd" d="M62.2422 61.0347H90.7753L76.508 36.2281L69.3314 48.7091L62.2422 61.0347Z" fill="url(#paint4_linear_141_11490)"/>
</g>
<mask id="mask7_141_11490" style="mask-type:luminance" maskUnits="userSpaceOnUse" x="29" y="36" width="30" height="26">
<path d="M43.9452 36.228L29.6797 61.0347H58.2115L51.1236 48.7091L43.9452 36.228Z" fill="white"/>
</mask>
<g mask="url(#mask7_141_11490)">
<path fill-rule="evenodd" clip-rule="evenodd" d="M43.9452 36.228L29.6797 61.0347H58.2115L51.1236 48.7091L43.9452 36.228Z" fill="url(#paint5_linear_141_11490)"/>
</g>
<mask id="mask8_141_11490" style="mask-type:luminance" maskUnits="userSpaceOnUse" x="29" y="36" width="23" height="26">
<mask id="mask9_141_11490" style="mask-type:luminance" maskUnits="userSpaceOnUse" x="29" y="36" width="23" height="26">
<path d="M29.6797 61.0347H51.1236V36.228H29.6797V61.0347Z" fill="white"/>
</mask>
<g mask="url(#mask9_141_11490)">
<path fill-rule="evenodd" clip-rule="evenodd" d="M29.6797 61.0347H51.1236V36.228H29.6797V61.0347Z" fill="url(#paint6_linear_141_11490)"/>
</g>
</mask>
<g mask="url(#mask8_141_11490)">
<path fill-rule="evenodd" clip-rule="evenodd" d="M43.9452 36.228L29.6797 61.0347C36.4315 54.1436 43.4823 49.3516 51.1236 48.7091L43.9452 36.228Z" fill="white"/>
</g>
<mask id="mask10_141_11490" style="mask-type:luminance" maskUnits="userSpaceOnUse" x="69" y="36" width="22" height="25">
<mask id="mask11_141_11490" style="mask-type:luminance" maskUnits="userSpaceOnUse" x="69" y="36" width="22" height="25">
<path d="M69.3516 60.9509H90.7953V36.1441H69.3516V60.9509Z" fill="white"/>
</mask>
<g mask="url(#mask11_141_11490)">
<path fill-rule="evenodd" clip-rule="evenodd" d="M69.3516 60.9509H90.7953V36.1441H69.3516V60.9509Z" fill="url(#paint7_linear_141_11490)"/>
</g>
</mask>
<g mask="url(#mask10_141_11490)">
<path fill-rule="evenodd" clip-rule="evenodd" d="M76.53 36.1441L90.7953 60.9509C84.0437 54.0597 76.9929 49.2677 69.3516 48.6252L76.53 36.1441Z" fill="white"/>
</g>
<path fill-rule="evenodd" clip-rule="evenodd" d="M106.842 88.9767H83.8425H79.448H41.0078H36.6119H13.6135L10.1699 94.9628H40.0534H44.4496H76.0057H80.4006H110.284L106.842 88.9767Z" fill="#005AA5"/>
<mask id="mask12_141_11490" style="mask-type:luminance" maskUnits="userSpaceOnUse" x="25" y="67" width="11" height="17">
<path d="M25.3047 67.1867H34.3944V69.9376H28.8305V73.1237H30.0582C32.2479 73.1237 33.7648 73.5659 34.6113 74.4459C35.4569 75.3259 35.8808 76.6025 35.8808 78.2782C35.8808 79.558 35.5977 80.6039 35.0316 81.419C34.4658 82.2307 33.8038 82.7441 33.0456 82.9586C32.2883 83.1697 31.2418 83.2767 29.9075 83.2767H25.3047V67.1867ZM28.8305 75.8746V80.5258H29.9206C30.7005 80.5258 31.2728 80.3537 31.6347 80.0161C31.9991 79.6716 32.1799 79.0871 32.1799 78.2556C32.1803 77.5311 32.0395 76.9565 31.7578 76.5247C31.4766 76.0925 30.8653 75.8746 29.9206 75.8746H28.8305Z" fill="white"/>
</mask>
<g mask="url(#mask12_141_11490)">
<path fill-rule="evenodd" clip-rule="evenodd" d="M25.3047 67.1867H34.3944V69.9376H28.8305V73.1237H30.0582C32.2479 73.1237 33.7648 73.5659 34.6113 74.4459C35.4569 75.3259 35.8808 76.6025 35.8808 78.2782C35.8808 79.558 35.5977 80.6039 35.0316 81.419C34.4658 82.2307 33.8038 82.7441 33.0456 82.9586C32.2883 83.1697 31.2418 83.2767 29.9075 83.2767H25.3047V67.1867ZM28.8305 75.8746V80.5258H29.9206C30.7005 80.5258 31.2728 80.3537 31.6347 80.0161C31.9991 79.6716 32.1799 79.0871 32.1799 78.2556C32.1803 77.5311 32.0395 76.9565 31.7578 76.5247C31.4766 76.0925 30.8653 75.8746 29.9206 75.8746H28.8305Z" fill="url(#paint8_linear_141_11490)"/>
</g>
<mask id="mask13_141_11490" style="mask-type:luminance" maskUnits="userSpaceOnUse" x="37" y="71" width="10" height="13">
<path d="M46.9249 77.8625H40.7478V78.5215C40.7478 79.5868 40.8915 80.2986 41.1774 80.6592C41.4628 81.0199 41.836 81.1985 42.3018 81.1985C43.2985 81.1985 43.8577 80.5259 43.9821 79.1815L46.9249 79.3696C46.4037 82.1304 44.8426 83.5106 42.2436 83.5106C40.6389 83.5106 39.421 82.9652 38.5881 81.8735C37.7552 80.7822 37.3379 79.321 37.3379 77.4958C37.3383 75.4298 37.7811 73.8549 38.6642 72.767C39.5478 71.6785 40.7327 71.1365 42.2192 71.1365C43.5567 71.1365 44.676 71.6172 45.5756 72.5784C46.4751 73.5367 46.9244 75.3002 46.9249 77.8625ZM43.8075 75.9332C43.814 75.7937 43.8187 75.6833 43.8187 75.6088C43.8192 74.0882 43.3093 73.3317 42.2904 73.3317C41.2849 73.3317 40.7778 74.1989 40.7717 75.9336L43.8075 75.9332Z" fill="white"/>
</mask>
<g mask="url(#mask13_141_11490)">
<path fill-rule="evenodd" clip-rule="evenodd" d="M46.9249 77.8625H40.7478V78.5215C40.7478 79.5868 40.8915 80.2986 41.1774 80.6592C41.4628 81.0199 41.836 81.1985 42.3018 81.1985C43.2985 81.1985 43.8577 80.5259 43.9821 79.1815L46.9249 79.3696C46.4037 82.1304 44.8426 83.5106 42.2436 83.5106C40.6389 83.5106 39.421 82.9652 38.5881 81.8735C37.7552 80.7822 37.3379 79.321 37.3379 77.4958C37.3383 75.4298 37.7811 73.8549 38.6642 72.767C39.5478 71.6785 40.7327 71.1365 42.2192 71.1365C43.5567 71.1365 44.676 71.6172 45.5756 72.5784C46.4751 73.5367 46.9244 75.3002 46.9249 77.8625ZM43.8075 75.9332C43.814 75.7937 43.8187 75.6833 43.8187 75.6088C43.8192 74.0882 43.3093 73.3317 42.2904 73.3317C41.2849 73.3317 40.7778 74.1989 40.7717 75.9336L43.8075 75.9332Z" fill="url(#paint9_linear_141_11490)"/>
</g>
<mask id="mask14_141_11490" style="mask-type:luminance" maskUnits="userSpaceOnUse" x="47" y="71" width="11" height="13">
<path d="M47.3418 83.2768L50.8596 71.3702H54.3081L57.5687 83.2768H54.1235L52.341 75.6149L50.3809 83.2768H47.3418Z" fill="white"/>
</mask>
<g mask="url(#mask14_141_11490)">
<path fill-rule="evenodd" clip-rule="evenodd" d="M47.3418 83.2768L50.8596 71.3702H54.3081L57.5687 83.2768H54.1235L52.341 75.6149L50.3809 83.2768H47.3418Z" fill="url(#paint10_linear_141_11490)"/>
</g>
<mask id="mask15_141_11490" style="mask-type:luminance" maskUnits="userSpaceOnUse" x="58" y="66" width="12" height="18">
<path d="M66.6321 77.3949L69.8965 77.5962C69.7781 79.3436 69.2245 80.7662 68.2395 81.864C67.2532 82.9614 65.9494 83.5106 64.3287 83.5106C62.3574 83.5106 60.8545 82.7767 59.8212 81.3088C58.7878 79.8404 58.2715 77.8239 58.2715 75.2483C58.2719 72.6529 58.7827 70.6232 59.8099 69.152C60.8357 67.6869 62.3569 66.953 64.3757 66.953C67.7189 66.9525 69.5387 69.0284 69.8364 73.1827L66.6321 73.4194C66.5452 71.0196 65.7992 69.8208 64.3903 69.8208C63.6512 69.8208 63.0625 70.2041 62.6273 70.9738C62.1893 71.7436 61.9706 73.2345 61.9706 75.4495C61.971 77.4275 62.1696 78.7883 62.5691 79.5289C62.9686 80.2727 63.5673 80.6428 64.3658 80.6428C65.6504 80.6428 66.4038 79.5613 66.6321 77.3949Z" fill="white"/>
</mask>
<g mask="url(#mask15_141_11490)">
<path fill-rule="evenodd" clip-rule="evenodd" d="M66.6321 77.3949L69.8965 77.5962C69.7781 79.3436 69.2245 80.7662 68.2395 81.864C67.2532 82.9614 65.9494 83.5106 64.3287 83.5106C62.3574 83.5106 60.8545 82.7767 59.8212 81.3088C58.7878 79.8404 58.2715 77.8239 58.2715 75.2483C58.2719 72.6529 58.7827 70.6232 59.8099 69.152C60.8357 67.6869 62.3569 66.953 64.3757 66.953C67.7189 66.9525 69.5387 69.0284 69.8364 73.1827L66.6321 73.4194C66.5452 71.0196 65.7992 69.8208 64.3903 69.8208C63.6512 69.8208 63.0625 70.2041 62.6273 70.9738C62.1893 71.7436 61.9706 73.2345 61.9706 75.4495C61.971 77.4275 62.1696 78.7883 62.5691 79.5289C62.9686 80.2727 63.5673 80.6428 64.3658 80.6428C65.6504 80.6428 66.4038 79.5613 66.6321 77.3949Z" fill="url(#paint11_linear_141_11490)"/>
</g>
<mask id="mask16_141_11490" style="mask-type:luminance" maskUnits="userSpaceOnUse" x="71" y="67" width="13" height="17">
<path d="M71.9551 67.1867H75.48V73.8354L79.3134 67.1867H82.9083L78.9007 73.1044L83.2599 83.2767H79.611L76.7999 75.878L75.48 77.8069V83.2767H71.9551V67.1867Z" fill="white"/>
</mask>
<g mask="url(#mask16_141_11490)">
<path fill-rule="evenodd" clip-rule="evenodd" d="M71.9551 67.1867H75.48V73.8354L79.3134 67.1867H82.9083L78.9007 73.1044L83.2599 83.2767H79.611L76.7999 75.878L75.48 77.8069V83.2767H71.9551V67.1867Z" fill="url(#paint12_linear_141_11490)"/>
</g>
<mask id="mask17_141_11490" style="mask-type:luminance" maskUnits="userSpaceOnUse" x="83" y="66" width="13" height="18">
<path d="M91.8859 77.3948L95.1479 77.5961C95.0301 79.3435 94.4766 80.7661 93.4935 81.8639C92.5052 82.9613 91.2014 83.5105 89.5822 83.5105C87.6094 83.5105 86.1066 82.7766 85.0727 81.3087C84.0408 79.8402 83.5234 77.8237 83.5234 75.2482C83.5234 72.6527 84.0361 70.623 85.0615 69.1518C86.0873 67.6867 87.6089 66.9528 89.6278 66.9528C92.9714 66.9524 94.7921 69.0283 95.0897 73.1826L91.8859 73.4192C91.7982 71.0195 91.0513 69.8207 89.6423 69.8207C88.9033 69.8207 88.3141 70.2039 87.8793 70.9737C87.4428 71.7435 87.2225 73.2344 87.2225 75.4494C87.2225 77.4273 87.423 78.7882 87.8226 79.5287C88.2202 80.2725 88.8206 80.6426 89.6179 80.6426C90.9024 80.6426 91.6559 79.5612 91.8859 77.3948Z" fill="white"/>
</mask>
<g mask="url(#mask17_141_11490)">
<path fill-rule="evenodd" clip-rule="evenodd" d="M91.8859 77.3948L95.1479 77.5961C95.0301 79.3435 94.4766 80.7661 93.4935 81.8639C92.5052 82.9613 91.2014 83.5105 89.5822 83.5105C87.6094 83.5105 86.1066 82.7766 85.0727 81.3087C84.0408 79.8402 83.5234 77.8237 83.5234 75.2482C83.5234 72.6527 84.0361 70.623 85.0615 69.1518C86.0873 67.6867 87.6089 66.9528 89.6278 66.9528C92.9714 66.9524 94.7921 69.0283 95.0897 73.1826L91.8859 73.4192C91.7982 71.0195 91.0513 69.8207 89.6423 69.8207C88.9033 69.8207 88.3141 70.2039 87.8793 70.9737C87.4428 71.7435 87.2225 73.2344 87.2225 75.4494C87.2225 77.4273 87.423 78.7882 87.8226 79.5287C88.2202 80.2725 88.8206 80.6426 89.6179 80.6426C90.9024 80.6426 91.6559 79.5612 91.8859 77.3948Z" fill="url(#paint13_linear_141_11490)"/>
</g>
<mask id="mask18_141_11490" style="mask-type:luminance" maskUnits="userSpaceOnUse" x="60" y="10" width="15" height="23">
<mask id="mask19_141_11490" style="mask-type:luminance" maskUnits="userSpaceOnUse" x="60" y="10" width="15" height="23">
<path d="M60.207 32.8481H74.7272V10.1255H60.207V32.8481Z" fill="white"/>
</mask>
<g mask="url(#mask19_141_11490)">
<path fill-rule="evenodd" clip-rule="evenodd" d="M60.207 32.8481H74.7272V10.1255H60.207V32.8481Z" fill="url(#paint14_linear_141_11490)"/>
</g>
</mask>
<g mask="url(#mask18_141_11490)">
<path fill-rule="evenodd" clip-rule="evenodd" d="M72.0568 32.8058L60.207 12.1745L61.4795 10.1255L74.7272 32.8481L72.0568 32.8058Z" fill="#5374AA"/>
</g>
<mask id="mask20_141_11490" style="mask-type:luminance" maskUnits="userSpaceOnUse" x="45" y="7" width="30" height="26">
<mask id="mask21_141_11490" style="mask-type:luminance" maskUnits="userSpaceOnUse" x="45" y="7" width="30" height="26">
<path d="M45.8711 32.879H74.5836V7.91248H45.8711V32.879Z" fill="white"/>
</mask>
<g mask="url(#mask21_141_11490)">
<path fill-rule="evenodd" clip-rule="evenodd" d="M45.8711 32.879H74.5836V7.91248H45.8711V32.879Z" fill="url(#paint15_linear_141_11490)"/>
</g>
</mask>
<g mask="url(#mask20_141_11490)">
<path fill-rule="evenodd" clip-rule="evenodd" d="M74.5836 32.8792L60.2271 7.91267L45.8711 32.8792H60.2271H74.5836Z" fill="white"/>
</g>
<mask id="mask22_141_11490" style="mask-type:luminance" maskUnits="userSpaceOnUse" x="25" y="66" width="71" height="10">
<mask id="mask23_141_11490" style="mask-type:luminance" maskUnits="userSpaceOnUse" x="25" y="66" width="71" height="10">
<path d="M25.3047 75.5944H95.0917V66.9525H25.3047V75.5944Z" fill="white"/>
</mask>
<g mask="url(#mask23_141_11490)">
<path fill-rule="evenodd" clip-rule="evenodd" d="M25.3047 75.5944H95.0917V66.9525H25.3047V75.5944Z" fill="url(#paint16_linear_141_11490)"/>
</g>
</mask>
<g mask="url(#mask22_141_11490)">
<path fill-rule="evenodd" clip-rule="evenodd" d="M25.3047 67.1865H34.3944V69.9377H28.8305V73.1235H30.0582C32.2481 73.1235 33.7646 73.566 34.6115 74.4459C34.9264 74.7738 35.1823 75.1565 35.3803 75.5945H25.3047V67.1865ZM87.225 75.5945H83.528C83.5258 75.48 83.5254 75.3651 83.5254 75.2483C83.5254 72.6528 84.0382 70.6232 85.0634 69.1519C86.0892 67.6868 87.6108 66.9529 89.6299 66.9529C92.9736 66.9524 94.7942 69.0284 95.0918 73.1825L91.8881 73.4194C91.8002 71.0193 91.0534 69.8209 89.6444 69.8209C88.9054 69.8209 88.3163 70.204 87.8813 70.9736C87.4448 71.7436 87.2247 73.2341 87.2247 75.4492L87.225 75.5945ZM79.9687 75.5945H71.9559V67.1865H75.4808V73.8351L79.3142 67.1865H82.909L78.9016 73.1045L79.9687 75.5945ZM61.9698 75.5945H58.2735C58.2713 75.48 58.2708 75.3651 58.2708 75.2483C58.2713 72.6528 58.7821 70.6232 59.8095 69.1519C60.8354 67.6868 62.3563 66.9529 64.3753 66.9529C67.7183 66.9524 69.5381 69.0284 69.8359 73.1825L66.6317 73.4194C66.5446 71.0193 65.7984 69.8209 64.3898 69.8209C63.651 69.8209 63.062 70.204 62.6267 70.9736C62.1888 71.7436 61.9697 73.2341 61.9697 75.4492L61.9698 75.5945ZM55.4638 75.5945H49.6104L50.8585 71.37H54.3069L55.4638 75.5945ZM46.7784 75.5945H43.8187C43.8161 74.0833 43.3065 73.3316 42.2907 73.3316C41.3529 73.3316 40.8484 74.086 40.7797 75.5945H37.4853C37.6819 74.4344 38.0753 73.4926 38.6644 72.7669C39.5479 71.6783 40.7329 71.1365 42.2194 71.1365C43.5569 71.1365 44.6763 71.6173 45.5758 72.5782C46.1796 73.2218 46.5798 74.2272 46.7784 75.5945Z" fill="white"/>
</g>
<defs>
<linearGradient id="paint0_linear_141_11490" x1="45.0791" y1="47.8246" x2="75.3784" y2="47.8246" gradientUnits="userSpaceOnUse">
<stop stop-color="#008DD2"/>
<stop offset="0.44" stop-color="#1D518D"/>
<stop offset="1" stop-color="#32466E"/>
</linearGradient>
<linearGradient id="paint1_linear_141_11490" x1="38.0629" y1="32.7858" x2="56.0013" y2="40.2602" gradientUnits="userSpaceOnUse">
<stop stop-color="white"/>
<stop offset="1" stop-color="white" stop-opacity="0"/>
</linearGradient>
<linearGradient id="paint2_linear_141_11490" x1="45.8709" y1="20.394" x2="74.5839" y2="20.394" gradientUnits="userSpaceOnUse">
<stop stop-color="#8EA3D3"/>
<stop offset="1" stop-color="#5374AA"/>
</linearGradient>
<linearGradient id="paint3_linear_141_11490" x1="57.0152" y1="32.6401" x2="57.0152" y2="30.4147" gradientUnits="userSpaceOnUse">
<stop stop-color="white"/>
<stop offset="1" stop-color="white" stop-opacity="0"/>
</linearGradient>
<linearGradient id="paint4_linear_141_11490" x1="62.2407" y1="48.6298" x2="90.7775" y2="48.6298" gradientUnits="userSpaceOnUse">
<stop stop-color="#8EA3D3"/>
<stop offset="1" stop-color="#5374AA"/>
</linearGradient>
<linearGradient id="paint5_linear_141_11490" x1="29.6777" y1="48.6298" x2="58.21" y2="48.6298" gradientUnits="userSpaceOnUse">
<stop stop-color="#8EA3D3"/>
<stop offset="1" stop-color="#5374AA"/>
</linearGradient>
<linearGradient id="paint6_linear_141_11490" x1="29.7017" y1="44.6117" x2="47.2471" y2="53.5976" gradientUnits="userSpaceOnUse">
<stop stop-color="white"/>
<stop offset="1" stop-color="white" stop-opacity="0"/>
</linearGradient>
<linearGradient id="paint7_linear_141_11490" x1="90.7762" y1="44.5279" x2="73.2308" y2="53.5138" gradientUnits="userSpaceOnUse">
<stop stop-color="white"/>
<stop offset="1" stop-color="white" stop-opacity="0"/>
</linearGradient>
<linearGradient id="paint8_linear_141_11490" x1="30.5943" y1="83.2764" x2="30.5943" y2="67.1853" gradientUnits="userSpaceOnUse">
<stop stop-color="#2B2B2A"/>
<stop offset="1" stop-color="#727272"/>
</linearGradient>
<linearGradient id="paint9_linear_141_11490" x1="42.1304" y1="83.5109" x2="42.1304" y2="71.1362" gradientUnits="userSpaceOnUse">
<stop stop-color="#2B2B2A"/>
<stop offset="1" stop-color="#727272"/>
</linearGradient>
<linearGradient id="paint10_linear_141_11490" x1="52.4564" y1="83.2764" x2="52.4564" y2="71.3707" gradientUnits="userSpaceOnUse">
<stop stop-color="#2B2B2A"/>
<stop offset="1" stop-color="#727272"/>
</linearGradient>
<linearGradient id="paint11_linear_141_11490" x1="64.0847" y1="83.5109" x2="64.0847" y2="66.9508" gradientUnits="userSpaceOnUse">
<stop stop-color="#2B2B2A"/>
<stop offset="1" stop-color="#727272"/>
</linearGradient>
<linearGradient id="paint12_linear_141_11490" x1="77.607" y1="83.2764" x2="77.607" y2="67.1853" gradientUnits="userSpaceOnUse">
<stop stop-color="#2B2B2A"/>
<stop offset="1" stop-color="#727272"/>
</linearGradient>
<linearGradient id="paint13_linear_141_11490" x1="89.3359" y1="83.5108" x2="89.3359" y2="66.9507" gradientUnits="userSpaceOnUse">
<stop stop-color="#2B2B2A"/>
<stop offset="1" stop-color="#727272"/>
</linearGradient>
<linearGradient id="paint14_linear_141_11490" x1="68.531" y1="21.0619" x2="64.9897" y2="23.1289" gradientUnits="userSpaceOnUse">
<stop stop-color="white"/>
<stop offset="1" stop-color="white" stop-opacity="0"/>
</linearGradient>
<linearGradient id="paint15_linear_141_11490" x1="60.2276" y1="1.6657" x2="61.1515" y2="26.0078" gradientUnits="userSpaceOnUse">
<stop stop-color="white"/>
<stop offset="1" stop-color="white" stop-opacity="0"/>
</linearGradient>
<linearGradient id="paint16_linear_141_11490" x1="56.7233" y1="61.0252" x2="56.7233" y2="76.9349" gradientUnits="userSpaceOnUse">
<stop stop-color="white"/>
<stop offset="1" stop-color="white" stop-opacity="0"/>
</linearGradient>
</defs>
</svg>
