<svg width="20" height="20" viewBox="0 0 20 20" fill="none" xmlns="http://www.w3.org/2000/svg">
<path d="M6.67219 1.00465C6.64245 1.01046 6.61321 1.01943 6.58512 1.03139C3.03842 2.34524 1 5.77942 1 9.72803C1 14.843 5.15869 19 10.2752 19C14.2252 19 17.6601 16.9554 18.9749 13.41C19.0317 13.2512 18.9902 13.0743 18.8689 12.9574C18.7476 12.8405 18.569 12.8054 18.4125 12.8679C17.4582 13.2514 16.4127 13.4502 15.3117 13.4502C10.7415 13.4502 6.55206 9.2555 6.55206 4.68683C6.55206 3.58622 6.75096 2.54111 7.13478 1.58717C7.19177 1.44465 7.16785 1.28254 7.0723 1.16228C6.97693 1.04186 6.82406 0.981722 6.67219 1.00465Z" fill="#4F5156"/>
</svg>
