<svg width="28" height="28" viewBox="0 0 28 28" fill="none" xmlns="http://www.w3.org/2000/svg">
<rect width="28" height="28" rx="14" fill="#605EB3"/>
<path d="M11.5085 10.4182C11.3937 10.4014 11.2766 10.4245 11.1768 10.4837H11.1682C10.9366 10.6195 10.7278 10.7906 10.5499 10.992C10.4017 11.1631 10.3214 11.336 10.3004 11.5028C10.288 11.6016 10.2967 11.7017 10.3257 11.7962L10.3368 11.8023C10.5036 12.2921 10.721 12.7634 10.9866 13.2069C11.3292 13.8297 11.7506 14.4057 12.2404 14.9208L12.2552 14.9418L12.2787 14.9591L12.2929 14.9758L12.3102 14.9906C12.8272 15.4819 13.4046 15.9053 14.0285 16.2506C14.7419 16.6391 15.1749 16.8226 15.4349 16.8992V16.9029C15.5109 16.9263 15.58 16.9368 15.6498 16.9368C15.8714 16.9209 16.0811 16.8309 16.2452 16.6811C16.446 16.5033 16.6158 16.2939 16.748 16.061V16.0567C16.8722 15.822 16.8302 15.6009 16.651 15.4508C16.2916 15.136 15.9025 14.8568 15.4892 14.617C15.2125 14.4669 14.9315 14.5577 14.8179 14.7096L14.5751 15.016C14.4504 15.1679 14.2243 15.1469 14.2243 15.1469L14.2181 15.1506C12.5313 14.7201 12.0811 13.0123 12.0811 13.0123C12.0811 13.0123 12.0601 12.7801 12.2163 12.6615L12.5202 12.4169C12.666 12.2983 12.7673 12.0179 12.611 11.7412C12.3717 11.3283 12.0931 10.9394 11.779 10.58C11.7103 10.4956 11.6141 10.4381 11.5073 10.4176M14.3589 9.67578C14.277 9.67578 14.1985 9.70832 14.1406 9.76623C14.0827 9.82415 14.0501 9.9027 14.0501 9.9846C14.0501 10.0665 14.0827 10.1451 14.1406 10.203C14.1985 10.2609 14.277 10.2934 14.3589 10.2934C15.1397 10.2934 15.7882 10.5485 16.3014 11.0377C16.5652 11.3051 16.7709 11.622 16.9055 11.9691C17.0408 12.3168 17.1025 12.688 17.0865 13.0599C17.083 13.1418 17.1123 13.2217 17.1678 13.282C17.2232 13.3424 17.3004 13.3782 17.3823 13.3817C17.4642 13.3851 17.5441 13.3559 17.6045 13.3004C17.6648 13.2449 17.7007 13.1677 17.7041 13.0858C17.7226 12.6285 17.6467 12.1722 17.4812 11.7455C17.3149 11.3166 17.0617 10.9267 16.7375 10.6004L16.7313 10.5942C16.0945 9.98584 15.2891 9.67578 14.3589 9.67578Z" fill="white"/>
<path d="M14.3362 10.6935C14.2543 10.6935 14.1757 10.726 14.1178 10.7839C14.0599 10.8419 14.0273 10.9204 14.0273 11.0023C14.0273 11.0842 14.0599 11.1628 14.1178 11.2207C14.1757 11.2786 14.2543 11.3111 14.3362 11.3111H14.3467C14.91 11.3513 15.3201 11.539 15.6073 11.8473C15.9019 12.1647 16.0545 12.5594 16.0427 13.0473C16.0408 13.1292 16.0716 13.2085 16.1282 13.2678C16.1847 13.327 16.2625 13.3614 16.3444 13.3633C16.4264 13.3652 16.5057 13.3344 16.5649 13.2778C16.6241 13.2213 16.6585 13.1435 16.6604 13.0615C16.6752 12.421 16.4689 11.8683 16.06 11.4273V11.426C15.6419 10.9776 15.0681 10.7404 14.3775 10.6941L14.367 10.6929L14.3362 10.6935Z" fill="white"/>
<path d="M14.3223 11.7224C14.281 11.7187 14.2393 11.7235 14.1999 11.7363C14.1604 11.7491 14.1239 11.7697 14.0926 11.7969C14.0613 11.8241 14.0358 11.8574 14.0176 11.8946C13.9994 11.9319 13.9889 11.9725 13.9867 12.0139C13.9846 12.0554 13.9908 12.0968 14.005 12.1358C14.0192 12.1748 14.0411 12.2105 14.0695 12.2408C14.0978 12.2711 14.1319 12.2954 14.1698 12.3123C14.2078 12.3291 14.2487 12.3381 14.2902 12.3388C14.5484 12.3524 14.7133 12.4302 14.817 12.5346C14.9214 12.6396 14.9992 12.8082 15.0134 13.0719C15.0142 13.1134 15.0233 13.1543 15.0402 13.1921C15.0571 13.23 15.0815 13.264 15.1118 13.2923C15.1421 13.3205 15.1779 13.3423 15.2168 13.3565C15.2558 13.3706 15.2972 13.3768 15.3386 13.3746C15.38 13.3724 15.4205 13.3619 15.4578 13.3437C15.495 13.3255 15.5282 13.3 15.5554 13.2687C15.5826 13.2374 15.6032 13.201 15.616 13.1615C15.6288 13.1221 15.6335 13.0805 15.6299 13.0392C15.6101 12.6686 15.494 12.3413 15.2562 12.1004C15.0171 11.8595 14.6916 11.7422 14.3223 11.7224Z" fill="white"/>
<path fill-rule="evenodd" clip-rule="evenodd" d="M10.9559 8.06192C12.9213 7.62259 14.9594 7.62259 16.9248 8.06192L17.1342 8.10824C17.7086 8.23701 18.2361 8.52233 18.6582 8.93258C19.0804 9.34283 19.3806 9.86197 19.5257 10.4324C20.0251 12.3983 20.0251 14.4578 19.5257 16.4236C19.3806 16.9941 19.0804 17.5132 18.6582 17.9235C18.2361 18.3337 17.7086 18.6191 17.1342 18.7478L16.9242 18.7942C15.6932 19.069 14.4301 19.1728 13.1708 19.1024L11.5322 20.5687C11.4704 20.624 11.3949 20.6617 11.3136 20.6779C11.2322 20.694 11.1481 20.6881 11.0698 20.6607C10.9916 20.6332 10.9221 20.5853 10.8687 20.5218C10.8153 20.4584 10.78 20.3818 10.7663 20.3L10.4951 18.6805C9.97532 18.5185 9.5057 18.2259 9.13105 17.8309C8.7564 17.4358 8.48922 16.9513 8.35498 16.4236C7.85563 14.4578 7.85563 12.3983 8.35498 10.4324C8.50009 9.86197 8.80036 9.34283 9.22249 8.93258C9.64462 8.52233 10.1721 8.23701 10.7465 8.10824L10.9559 8.06192ZM16.7229 8.96554C14.8905 8.55592 12.9902 8.55592 11.1579 8.96554L10.9479 9.01248C10.5408 9.104 10.167 9.30639 9.86789 9.59724C9.56876 9.88808 9.35596 10.256 9.25304 10.6604C8.79165 12.4766 8.79165 14.3794 9.25304 16.1957C9.35601 16.6001 9.5689 16.9681 9.86815 17.259C10.1674 17.5498 10.5413 17.7522 10.9485 17.8436L11.0041 17.8559C11.094 17.8761 11.1759 17.9225 11.2392 17.9894C11.3026 18.0563 11.3446 18.1406 11.3598 18.2315L11.5414 19.3173L12.6977 18.2827C12.7438 18.2413 12.7979 18.2096 12.8565 18.1894C12.9152 18.1692 12.9773 18.1611 13.0392 18.1654C14.2739 18.2526 15.5148 18.16 16.7229 17.8905L16.9322 17.8436C17.3394 17.7522 17.7133 17.5498 18.0126 17.259C18.3118 16.9681 18.5247 16.6001 18.6277 16.1957C19.0884 14.3798 19.0884 12.4769 18.6277 10.6604C18.5247 10.256 18.3118 9.88795 18.0126 9.5971C17.7133 9.30625 17.3394 9.1039 16.9322 9.01248L16.7229 8.96554Z" fill="white"/>
</svg>
