<svg width="28" height="28" viewBox="0 0 28 28" fill="none" xmlns="http://www.w3.org/2000/svg">
<rect width="28" height="28" rx="14" fill="#18C759"/>
<path fill-rule="evenodd" clip-rule="evenodd" d="M18.6316 9.36545C18.0289 8.76166 17.3118 8.2829 16.5218 7.9569C15.7319 7.63091 14.8848 7.46417 14.0296 7.46633C10.4437 7.46633 7.52455 10.3709 7.5231 13.9412C7.5231 15.0823 7.82241 16.1959 8.39131 17.1783L7.46875 20.533L10.9177 19.6321C11.8717 20.149 12.9405 20.42 14.0267 20.4205H14.0296C17.6148 20.4205 20.5339 17.5159 20.5354 13.9456C20.5379 13.0948 20.3709 12.252 20.0441 11.4659C19.7173 10.6797 19.2372 9.96582 18.6316 9.36545ZM14.0296 19.3277H14.0274C13.0589 19.3278 12.1081 19.0685 11.275 18.5769L11.0778 18.46L9.03124 18.9945L9.57695 17.0088L9.44868 16.8054C8.90716 15.9474 8.62049 14.9545 8.62177 13.9412C8.62322 10.9739 11.0488 8.55978 14.0318 8.55978C14.7422 8.55821 15.4459 8.69689 16.102 8.96778C16.7582 9.23867 17.3539 9.63639 17.8547 10.1379C18.3581 10.6371 18.7571 11.2306 19.0286 11.8841C19.3002 12.5377 19.4389 13.2383 19.4367 13.9456C19.4353 16.9129 17.0096 19.3277 14.0296 19.3277ZM16.9959 15.2965C16.8328 15.215 16.0342 14.8241 15.8849 14.77C15.7363 14.7159 15.6283 14.6892 15.5196 14.8508C15.4109 15.0123 15.0993 15.3766 15.0044 15.4848C14.9094 15.593 14.8145 15.6059 14.6521 15.5252C14.4898 15.4444 13.9658 15.2734 13.3448 14.7224C12.8614 14.2932 12.5352 13.7638 12.4403 13.6015C12.3454 13.4392 12.4302 13.3519 12.5121 13.2712C12.5852 13.199 12.6744 13.0822 12.7556 12.9877C12.8367 12.8932 12.8635 12.8261 12.9179 12.7179C12.9722 12.6098 12.9454 12.5153 12.9041 12.4345C12.8635 12.353 12.5381 11.5567 12.4026 11.2328C12.2714 10.9191 12.1374 10.9609 12.0374 10.9566C11.9338 10.9524 11.8301 10.9504 11.7265 10.9508C11.644 10.9529 11.5629 10.9719 11.4882 11.0067C11.4135 11.0414 11.3468 11.0912 11.2924 11.1528C11.1431 11.3151 10.7235 11.706 10.7235 12.5023C10.7235 13.2986 11.3061 14.0682 11.3873 14.1764C11.4685 14.2846 12.5338 15.9182 14.1644 16.6193C14.5529 16.7859 14.8558 16.8855 15.0913 16.9605C15.4805 17.0838 15.8349 17.0658 16.1153 17.0247C16.4277 16.9785 17.077 16.6338 17.2126 16.2558C17.3481 15.8779 17.3481 15.554 17.3075 15.4862C17.2669 15.4184 17.1575 15.3773 16.9959 15.2965Z" fill="white"/>
</svg>
